<svg xmlns="http://www.w3.org/2000/svg" width="240pt" height="271.98pt" viewBox="0 0 240 271.98"><defs><mask id="tk-char-number-30-symbol" maskUnits="userSpaceOnUse" x="0" y="0" width="240" height="271.98"><rect width="240" height="271.98" fill="#fff"/><g transform="translate(120 135.99)"><path d="M-69.83 33.3Q-68.62 33.3 -67.28 33.67Q-65.92 34.05 -64.28 35.25Q-61.58 37.65 -57.75 39.22Q-53.92 40.8 -48.98 40.8Q-43.42 40.8 -38.62 38.17Q-33.82 35.55 -30.82 30.75Q-27.83 25.95 -27.83 19.35Q-27.83 12.6 -30.68 8.33Q-33.52 4.05 -38.02 1.88Q-42.52 -0.3 -47.48 -0.3Q-50.32 -0.3 -52.27 0.23Q-54.22 0.75 -56.02 1.28Q-57.83 1.8 -59.92 1.8Q-62.77 1.8 -64.42 -0.22Q-66.08 -2.25 -66.08 -5.1Q-66.08 -6.9 -65.33 -8.25Q-64.58 -9.6 -63.22 -11.25L-38.32 -37.95H-71.92Q-74.92 -37.95 -76.95 -39.98Q-78.97 -42 -78.97 -45Q-78.97 -47.85 -76.95 -49.8Q-74.92 -51.75 -71.92 -51.75H-24.52Q-20.62 -51.75 -18.75 -49.5Q-16.88 -47.25 -16.88 -44.25Q-16.88 -42.6 -17.7 -41.1Q-18.53 -39.6 -19.72 -38.25L-42.23 -14.1Q-33.98 -13.95 -27.23 -9.75Q-20.47 -5.4 -16.65 1.88Q-12.83 9.15 -12.83 18.3Q-12.83 29.25 -17.78 37.27Q-22.73 45.3 -31.5 49.65Q-40.27 54 -51.67 54Q-57.38 54 -63 52.42Q-68.62 50.85 -72.67 47.85Q-75.22 46.35 -76.12 44.62Q-77.02 42.9 -77.02 41.25Q-77.02 38.4 -75 35.85Q-72.97 33.3 -69.83 33.3ZM40.13 54Q27.53 54 18.83 47.02Q10.13 40.05 5.7 27.82Q1.28 15.6 1.28 0Q1.28 -15.75 5.7 -27.98Q10.13 -40.2 18.83 -47.1Q27.53 -54 40.13 -54Q52.73 -54 61.35 -47.1Q69.98 -40.2 74.48 -27.98Q78.98 -15.75 78.98 0Q78.98 15.6 74.48 27.82Q69.98 40.05 61.35 47.02Q52.73 54 40.13 54ZM40.13 38.85Q47.18 38.85 52.2 34.35Q57.23 29.85 60 21.15Q62.78 12.45 62.78 0Q62.78 -12.6 60 -21.3Q57.23 -30 52.2 -34.5Q47.18 -39 40.13 -39Q33.08 -39 27.98 -34.5Q22.88 -30 20.18 -21.3Q17.48 -12.6 17.48 0Q17.48 12.45 20.18 21.15Q22.88 29.85 27.98 34.35Q33.08 38.85 40.13 38.85Z" fill="#000"/></g></mask></defs><path d="M8.31 61.91L111.69 2.23A16.63 16.63 0 0 1 128.31 2.23L231.69 61.91A16.63 16.63 0 0 1 240 76.31L240 195.67A16.63 16.63 0 0 1 231.69 210.07L128.31 269.76A16.63 16.63 0 0 1 111.69 269.76L8.31 210.07A16.63 16.63 0 0 1 0 195.67L0 76.31A16.63 16.63 0 0 1 8.31 61.91Z" fill="#006680" mask="url(#tk-char-number-30-symbol)"/></svg>
